<svg xmlns="http://www.w3.org/2000/svg" xmlns:xlink="http://www.w3.org/1999/xlink" version="1.1" x="0px" y="0px" viewBox="0 0 54 75" enable-background="new 0 0 54 60" xml:space="preserve"><path d="M53,18h-5H28v-2h20h5c0.55,0,1-0.45,1-1s-0.45-1-1-1h-5c-3.34,0-5.44-1.14-7.87-2.46C37.23,9.97,33.96,8.2,28,8.02V6  c0.27,0,0.52-0.11,0.71-0.29l1-1C29.89,4.52,30,4.27,30,4V2c0-0.27-0.11-0.52-0.29-0.71l-1-1C28.52,0.11,28.27,0,28,0h-2  c-0.27,0-0.52,0.11-0.71,0.29l-1,1C24.11,1.48,24,1.73,24,2v2c0,0.27,0.11,0.52,0.29,0.71l1,1C25.48,5.89,25.73,6,26,6v2.02  c-5.94,0.18-9.2,1.95-12.09,3.52C11.47,12.86,9.38,14,6,14H1c-0.55,0-1,0.45-1,1s0.45,1,1,1h5h20v2H6H1c-0.55,0-1,0.45-1,1  s0.45,1,1,1h5c3.34,0,5.44,1.14,7.87,2.46c2.9,1.57,6.18,3.35,12.13,3.53v20.6L14.29,58.29c-0.39,0.39-0.39,1.02,0,1.41  C14.49,59.9,14.74,60,15,60s0.51-0.1,0.71-0.29L26,49.41V59c0,0.55,0.45,1,1,1s1-0.45,1-1v-9.59l10.29,10.29  C38.49,59.9,38.74,60,39,60s0.51-0.1,0.71-0.29c0.39-0.39,0.39-1.02,0-1.41L28,46.59v-20.6c5.94-0.18,9.2-1.95,12.09-3.52  C42.53,21.14,44.62,20,48,20h5c0.55,0,1-0.45,1-1S53.55,18,53,18z M26,2.41L26.41,2h1.17L28,2.41v1.17L27.59,4h-1.17L26,3.59V2.41z   M14.86,13.29C17.84,11.67,20.92,10,27,10c6.09,0,9.19,1.68,12.18,3.3c0.44,0.24,0.87,0.47,1.31,0.7H13.53  C13.98,13.77,14.42,13.53,14.86,13.29z M39.14,20.71C36.16,22.33,33.08,24,27,24c-6.09,0-9.19-1.68-12.18-3.3  c-0.44-0.24-0.87-0.47-1.31-0.7h26.96C40.02,20.23,39.58,20.47,39.14,20.71z"/></svg>